<svg xmlns="http://www.w3.org/2000/svg" viewBox="0 0 512 512"><defs><linearGradient id="mhbg" x1="0" y1="0" x2="1" y2="1"><stop offset="0" stop-color="#2a1f45"/><stop offset="1" stop-color="#130f1d"/></linearGradient><radialGradient id="mhgl" cx=".5" cy=".5" r=".5"><stop offset="0" stop-color="#ff5fd6" stop-opacity=".35"/><stop offset="1" stop-color="#ff5fd6" stop-opacity="0"/></radialGradient><linearGradient id="mhfb" x1="0" y1="1" x2="1" y2="0"><stop offset="0" stop-color="#ff5fd6"/><stop offset=".5" stop-color="#f6cf4c"/><stop offset="1" stop-color="#ffe58a"/></linearGradient></defs><rect width="512" height="512" rx="112" fill="url(#mhbg)"/><circle cx="256" cy="256" r="220" fill="url(#mhgl)"/><g transform="rotate(-35 256 256)"><path d="M84 256C144 136 368 136 428 256C368 376 144 376 84 256Z" fill="url(#mhfb)" stroke="#130f1d" stroke-width="14" stroke-linejoin="round"/><path d="M150 186c-22 40-22 100 0 140M362 186c22 40 22 100 0 140" fill="none" stroke="#130f1d" stroke-width="12" stroke-linecap="round"/><path d="M190 256h132" stroke="#130f1d" stroke-width="14" stroke-linecap="round"/><path d="M208 236v40M232 236v40M256 236v40M280 236v40M304 236v40" stroke="#130f1d" stroke-width="12" stroke-linecap="round"/></g><path d="M118 430h276" stroke="#4cecff" stroke-width="10" stroke-linecap="round" opacity=".85"/></svg>
